<svg width="40" height="40" viewBox="0 0 40 40" fill="none" xmlns="http://www.w3.org/2000/svg">
<g clip-path="url(#clip0_2153_1727)">
<path d="M32.5 0H7.5C3.35692 0 0 3.35692 0 7.5V32.5C0 36.6431 3.35692 40 7.5 40H32.5C36.6431 40 40 36.6431 40 32.5V7.5C40 3.35692 36.6431 0 32.5 0ZM28.8923 26.76L26.7569 28.8938C26.3662 29.2862 25.7262 29.2862 25.3354 28.8938L20 23.5585L14.6662 28.8923C14.2738 29.2846 13.6354 29.2846 13.2431 28.8892L11.1077 26.76C10.7185 26.3662 10.7185 25.7308 11.1077 25.3354L16.4431 20.0015L11.1092 14.6677C10.7185 14.2738 10.7185 13.6338 11.1092 13.2446L13.2446 11.1092C13.6369 10.7138 14.2769 10.7138 14.6677 11.1092L20 16.4446L25.3354 11.1092C25.7277 10.7138 26.3677 10.7138 26.7569 11.1092L28.8923 13.2415C29.2831 13.6338 29.2831 14.2738 28.8938 14.6677L23.5585 20.0015L28.8938 25.3354C29.2815 25.7308 29.2815 26.3662 28.8923 26.76Z" fill="#D75C5C"/>
</g>
<defs>
<clipPath id="clip0_2153_1727">
<rect width="40" height="40" fill="white"/>
</clipPath>
</defs>
</svg>
