<svg width="35" height="28" viewBox="0 0 35 28" fill="none" xmlns="http://www.w3.org/2000/svg">
<path d="M29.6483 2.26907C27.3827 1.20904 24.9602 0.438662 22.4276 0C22.1165 0.562349 21.7531 1.31872 21.5026 1.92041C18.8103 1.51553 16.1428 1.51553 13.5 1.92041C13.2495 1.31872 12.8779 0.562349 12.5641 0C10.0287 0.438662 7.60339 1.21187 5.33778 2.27468C0.768021 9.18019 -0.470766 15.9142 0.148628 22.5525C3.17953 24.8159 6.11685 26.1909 9.00459 27.0906C9.71759 26.1093 10.3535 25.0662 10.9013 23.9668C9.85797 23.5704 8.85869 23.0812 7.91448 22.5132C8.16498 22.3276 8.41 22.1336 8.64672 21.934C14.4057 24.6276 20.663 24.6276 26.3532 21.934C26.5927 22.1336 26.8376 22.3276 27.0854 22.5132C26.1384 23.0839 25.1364 23.5732 24.0931 23.9697C24.6409 25.0662 25.274 26.1122 25.9898 27.0934C28.8803 26.1937 31.8203 24.8188 34.8512 22.5525C35.578 14.857 33.6097 8.18484 29.6483 2.26907ZM11.6859 18.47C9.95709 18.47 8.53935 16.8561 8.53935 14.8907C8.53935 12.9253 9.92682 11.3086 11.6859 11.3086C13.445 11.3086 14.8627 12.9225 14.8324 14.8907C14.8351 16.8561 13.445 18.47 11.6859 18.47ZM23.314 18.47C21.5852 18.47 20.1675 16.8561 20.1675 14.8907C20.1675 12.9253 21.5549 11.3086 23.314 11.3086C25.0731 11.3086 26.4908 12.9225 26.4605 14.8907C26.4605 16.8561 25.0731 18.47 23.314 18.47Z" fill="#5865F2"/>
</svg>
